# Blender v3.1.2 OBJ File: 'location_marker.blend'
# www.blender.org
o location_marker
v 0.000000 0.439251 -0.025000
v 0.000000 0.439251 0.025000
v 0.000000 0.271664 -0.025000
v 0.000000 0.271664 0.025000
v -0.032066 0.278043 -0.025000
v -0.032066 0.278043 0.025000
v -0.059251 0.296207 -0.025000
v -0.059251 0.296207 0.025000
v -0.077415 0.323391 -0.025000
v -0.077415 0.323391 0.025000
v -0.083793 0.355458 -0.025000
v -0.083793 0.355458 0.025000
v -0.077415 0.387524 -0.025000
v -0.077415 0.387524 0.025000
v -0.059251 0.414708 -0.025000
v -0.059251 0.414708 0.025000
v -0.032066 0.432873 -0.025000
v -0.032066 0.432873 0.025000
v 0.000000 0.499807 -0.025000
v 0.000000 0.499807 0.025000
v 0.000000 -0.000000 -0.025000
v 0.000000 0.000000 0.025000
v -0.059123 0.121187 -0.025000
v -0.059123 0.121187 0.025000
v -0.105923 0.218331 -0.025000
v -0.105923 0.218331 0.025000
v -0.135087 0.297139 -0.025000
v -0.135087 0.297139 0.025000
v -0.144349 0.355458 -0.025000
v -0.144349 0.355458 0.025000
v -0.133361 0.410698 -0.025000
v -0.133361 0.410698 0.025000
v -0.102070 0.457528 -0.025000
v -0.102070 0.457528 0.025000
v -0.055240 0.488819 -0.025000
v -0.055240 0.488819 0.025000
v 0.032066 0.278043 -0.025000
v 0.032066 0.278043 0.025000
v 0.059251 0.296207 -0.025000
v 0.059251 0.296207 0.025000
v 0.077415 0.323391 -0.025000
v 0.077415 0.323391 0.025000
v 0.083793 0.355458 -0.025000
v 0.083793 0.355458 0.025000
v 0.077415 0.387524 -0.025000
v 0.077415 0.387524 0.025000
v 0.059251 0.414708 -0.025000
v 0.059251 0.414708 0.025000
v 0.032066 0.432873 -0.025000
v 0.032066 0.432873 0.025000
v 0.059123 0.121187 -0.025000
v 0.059123 0.121187 0.025000
v 0.105923 0.218331 -0.025000
v 0.105923 0.218331 0.025000
v 0.135087 0.297139 -0.025000
v 0.135087 0.297139 0.025000
v 0.144349 0.355458 -0.025000
v 0.144349 0.355458 0.025000
v 0.133361 0.410698 -0.025000
v 0.133361 0.410698 0.025000
v 0.102070 0.457528 -0.025000
v 0.102070 0.457528 0.025000
v 0.055240 0.488819 -0.025000
v 0.055240 0.488819 0.025000
vt 0.101985 0.557584
vt 0.127409 0.595633
vt 0.067475 0.655567
vt 0.023678 0.590020
vt 0.706966 0.595633
vt 0.732390 0.557584
vt 0.810697 0.590020
vt 0.766900 0.655567
vt 0.165459 0.404345
vt 0.127409 0.429769
vt 0.062083 0.320769
vt 0.127588 0.184797
vt 0.706966 0.429769
vt 0.668916 0.404345
vt 0.706787 0.184797
vt 0.772291 0.320769
vt 0.093057 0.512701
vt 0.008298 0.512701
vt 0.741317 0.512701
vt 0.826076 0.512701
vt 0.210341 0.395418
vt 0.210341 0.015175
vt 0.905667 0.681701
vt 0.835683 0.681701
vt 0.835683 0.530774
vt 0.905667 0.530774
vt 0.905667 0.870434
vt 0.835683 0.870434
vt 0.835683 0.413158
vt 0.905667 0.413158
vt 0.835683 0.330507
vt 0.905667 0.330507
vt 0.835683 0.251674
vt 0.905667 0.251674
vt 0.835683 0.172841
vt 0.905667 0.172841
vt 0.835683 0.094008
vt 0.905667 0.094008
vt 0.835683 0.015175
vt 0.905667 0.015175
vt 0.668916 0.621057
vt 0.701352 0.699365
vt 0.165459 0.621058
vt 0.133023 0.699365
vt 0.732390 0.467819
vt 0.813112 0.431074
vt 0.101985 0.467819
vt 0.021263 0.431074
vt 0.624034 0.629985
vt 0.624034 0.714744
vt 0.210341 0.629985
vt 0.210341 0.714744
vt 0.624034 0.395418
vt 0.624034 0.015175
vt 0.744766 0.794742
vt 0.699005 0.794742
vt 0.699005 0.724758
vt 0.744766 0.724758
vt 0.653243 0.794742
vt 0.653243 0.724758
vt 0.607481 0.794742
vt 0.607481 0.724758
vt 0.561719 0.794742
vt 0.561719 0.724758
vt 0.515958 0.794742
vt 0.515958 0.724758
vt 0.470196 0.794742
vt 0.470196 0.724758
vt 0.424434 0.794742
vt 0.424434 0.724758
vt 0.378672 0.794742
vt 0.378672 0.724758
vt 0.318697 0.557584
vt 0.397004 0.590020
vt 0.353207 0.655567
vt 0.293273 0.595634
vt 0.541102 0.595633
vt 0.481168 0.655567
vt 0.437370 0.590020
vt 0.515678 0.557584
vt 0.255224 0.404345
vt 0.293095 0.184797
vt 0.358599 0.320769
vt 0.293273 0.429769
vt 0.541102 0.429769
vt 0.475776 0.320769
vt 0.541280 0.184797
vt 0.579151 0.404345
vt 0.327625 0.512702
vt 0.412384 0.512701
vt 0.421991 0.512701
vt 0.506750 0.512701
vt 0.985258 0.203907
vt 0.985258 0.354834
vt 0.915274 0.354834
vt 0.915274 0.203907
vt 0.985258 0.015175
vt 0.915274 0.015175
vt 0.985258 0.472451
vt 0.915274 0.472451
vt 0.985258 0.555101
vt 0.915274 0.555101
vt 0.985258 0.633935
vt 0.915274 0.633935
vt 0.985258 0.712768
vt 0.915274 0.712768
vt 0.985258 0.791601
vt 0.915274 0.791601
vt 0.985258 0.870434
vt 0.915274 0.870434
vt 0.579151 0.621057
vt 0.546715 0.699365
vt 0.287660 0.699365
vt 0.255224 0.621058
vt 0.515678 0.467819
vt 0.434955 0.431074
vt 0.399420 0.431074
vt 0.318697 0.467819
vt 0.012577 0.794742
vt 0.012577 0.724758
vt 0.058339 0.724758
vt 0.058339 0.794742
vt 0.104101 0.724758
vt 0.104101 0.794742
vt 0.149863 0.724758
vt 0.149863 0.794742
vt 0.195625 0.724758
vt 0.195625 0.794742
vt 0.241387 0.724758
vt 0.241387 0.794742
vt 0.287149 0.724758
vt 0.287148 0.794742
vt 0.332910 0.724758
vt 0.332910 0.794742
vn 0.0000 0.0000 1.0000
vn 0.0000 -0.0000 -1.0000
vn -0.8998 -0.4362 0.0000
vn -0.9204 -0.3910 0.0000
vn -0.8987 -0.4385 0.0000
vn -0.9674 -0.2532 0.0000
vn -0.9998 0.0194 0.0000
vn -0.9239 0.3827 0.0000
vn -0.7071 0.7071 0.0000
vn -0.3827 0.9239 0.0000
vn 0.0000 1.0000 0.0000
vn 0.0000 -1.0000 0.0000
vn 0.3827 -0.9239 0.0000
vn 0.7071 -0.7071 0.0000
vn 0.9239 -0.3827 0.0000
vn 1.0000 0.0000 0.0000
vn 0.9239 0.3827 0.0000
vn 0.7071 0.7071 0.0000
vn 0.3827 0.9239 0.0000
vn 0.8998 -0.4362 0.0000
vn 0.9204 -0.3910 0.0000
vn 0.8987 -0.4385 0.0000
vn 0.9674 -0.2532 0.0000
vn 0.9998 0.0194 0.0000
vn -0.3827 -0.9239 0.0000
vn -0.7071 -0.7071 0.0000
vn -0.9239 -0.3827 0.0000
vn -1.0000 0.0000 0.0000
s 1
f 14/1/1 16/2/1 34/3/1 32/4/1
f 15/5/2 13/6/2 31/7/2 33/8/2
f 6/9/1 8/10/1 26/11/1 24/12/1
f 7/13/2 5/14/2 23/15/2 25/16/2
f 12/17/1 14/1/1 32/4/1 30/18/1
f 13/6/2 11/19/2 29/20/2 31/7/2
f 4/21/1 6/9/1 24/12/1 22/22/1
f 23/23/3 24/24/3 26/25/4 25/26/4
f 21/27/5 22/28/5 24/24/3 23/23/3
f 25/26/4 26/25/4 28/29/6 27/30/6
f 27/30/6 28/29/6 30/31/7 29/32/7
f 29/32/7 30/31/7 32/33/8 31/34/8
f 31/34/8 32/33/8 34/35/9 33/36/9
f 33/36/9 34/35/9 36/37/10 35/38/10
f 35/38/10 36/37/10 20/39/11 19/40/11
f 17/41/2 15/5/2 33/8/2 35/42/2
f 16/2/1 18/43/1 36/44/1 34/3/1
f 9/45/2 7/13/2 25/16/2 27/46/2
f 8/10/1 10/47/1 28/48/1 26/11/1
f 1/49/2 17/41/2 35/42/2 19/50/2
f 18/43/1 2/51/1 20/52/1 36/44/1
f 11/19/2 9/45/2 27/46/2 29/20/2
f 10/47/1 12/17/1 30/18/1 28/48/1
f 5/14/2 3/53/2 21/54/2 23/15/2
f 2/55/12 18/56/13 17/57/13 1/58/12
f 18/56/13 16/59/14 15/60/14 17/57/13
f 16/59/14 14/61/15 13/62/15 15/60/14
f 14/61/15 12/63/16 11/64/16 13/62/15
f 12/63/16 10/65/17 9/66/17 11/64/16
f 10/65/17 8/67/18 7/68/18 9/66/17
f 8/67/18 6/69/19 5/70/19 7/68/18
f 6/69/19 4/71/11 3/72/11 5/70/19
f 46/73/1 60/74/1 62/75/1 48/76/1
f 47/77/2 61/78/2 59/79/2 45/80/2
f 38/81/1 52/82/1 54/83/1 40/84/1
f 39/85/2 53/86/2 51/87/2 37/88/2
f 44/89/1 58/90/1 60/74/1 46/73/1
f 45/80/2 59/79/2 57/91/2 43/92/2
f 4/21/1 22/22/1 52/82/1 38/81/1
f 51/93/20 53/94/21 54/95/21 52/96/20
f 21/97/22 51/93/20 52/96/20 22/98/22
f 53/94/21 55/99/23 56/100/23 54/95/21
f 55/99/23 57/101/24 58/102/24 56/100/23
f 57/101/24 59/103/17 60/104/17 58/102/24
f 59/103/17 61/105/18 62/106/18 60/104/17
f 61/105/18 63/107/19 64/108/19 62/106/18
f 63/107/19 19/109/11 20/110/11 64/108/19
f 49/111/2 63/112/2 61/78/2 47/77/2
f 48/76/1 62/75/1 64/113/1 50/114/1
f 41/115/2 55/116/2 53/86/2 39/85/2
f 40/84/1 54/83/1 56/117/1 42/118/1
f 1/49/2 19/50/2 63/112/2 49/111/2
f 50/114/1 64/113/1 20/52/1 2/51/1
f 43/92/2 57/91/2 55/116/2 41/115/2
f 42/118/1 56/117/1 58/90/1 44/89/1
f 37/88/2 51/87/2 21/54/2 3/53/2
f 2/119/12 1/120/12 49/121/25 50/122/25
f 50/122/25 49/121/25 47/123/26 48/124/26
f 48/124/26 47/123/26 45/125/27 46/126/27
f 46/126/27 45/125/27 43/127/28 44/128/28
f 44/128/28 43/127/28 41/129/8 42/130/8
f 42/130/8 41/129/8 39/131/9 40/132/9
f 40/132/9 39/131/9 37/133/10 38/134/10
f 38/134/10 37/133/10 3/72/11 4/71/11
